PathFileType	4	(X/Y/Z)	pose_F01_0-91.trc
DataRate	CameraRate	NumFrames	NumMarkers	Units	OrigDataRate	OrigDataStartFrame	OrigNumFrames
30	30	7	21	m	30	11	91
Frame#	Time	CHip			RHip			RKnee			RAnkle			RBigToe			RSmallToe			RHeel			LHip			LKnee			LAnkle			LBigToe			LSmallToe			LHeel			Neck			Nose			RShoulder			RElbow			RWrist			LShoulder			LElbow			LWrist			
		X1	Y1	Z1	X2	Y2	Z2	X3	Y3	Z3	X4	Y4	Z4	X5	Y5	Z5	X6	Y6	Z6	X7	Y7	Z7	X8	Y8	Z8	X9	Y9	Z9	X10	Y10	Z10	X11	Y11	Z11	X12	Y12	Z12	X13	Y13	Z13	X14	Y14	Z14	X15	Y15	Z15	X16	Y16	Z16	X17	Y17	Z17	X18	Y18	Z18	X19	Y19	Z19	X20	Y20	Z20	X21	Y21	Z21	
11	0.36666666666666664	-0.2627691685126703	1.8273767899139912	-0.46821707745896485	-0.26830215769054166	1.8258252080864152	-0.4083878299038247	-0.27273573431671866	1.682978107778571	-0.4039165443280778	-0.26449481820189186	1.5360929911329597	-0.4004857786786808	-0.2161171760070947	1.5032530100824113	-0.3795097756716439	-0.23015104562640426	1.5076887865705804	-0.3588584688917091	-0.5022613899496048	1.4908305137346316	-1.0539860441512119	-0.24654529739961373	1.828761666333675	-0.5300758374695138	-0.23704491197835048	1.698817037459805	-0.49935547183409024	-0.3414443312303327	1.5775473593293865	-0.5831729906877106	-0.45020322616867614	1.5288441512648838	-0.9856717432875501	-0.3028174340706399	1.5512598011683938	-0.5899403905133028	-0.35835001243436987	1.5690580424938385	-0.5788749617948774	-0.27034998227013646	1.9871674443456013	-0.5026728744942404	-0.22868459125769738	2.032972589944948	-0.4845361117034743	-0.2841013905600714	1.9844068548951541	-0.42142908645167826	-0.24119146113161768	1.959318504501941	-0.37285446335291034	-0.23694318059401118	2.020219452264717	-0.43287109671224033	-0.2507162346072976	1.9888464835092845	-0.5880784409455502	-0.26215934041184974	1.9321253183363687	-0.685749554466679	-0.26947525819925183	1.8842249718517703	-0.5816917661396277
12	0.4	-0.2627691685126703	1.8273767899139912	-0.46821707745896485	-0.26830215769054166	1.8258252080864152	-0.4083878299038247	-0.27273573431671866	1.682978107778571	-0.4039165443280778	-0.26449481820189186	1.5360929911329597	-0.4004857786786808	-0.2161171760070947	1.5032530100824113	-0.3795097756716439	-0.23015104562640426	1.5076887865705804	-0.3588584688917091	-0.44475206434832837	1.4977513891354752	-0.8914472969384386	-0.24654529739961373	1.828761666333675	-0.5300758374695138	-0.23704491197835048	1.698817037459805	-0.49935547183409024	-0.3414443312303327	1.5775473593293865	-0.5831729906877106	-0.45020322616867614	1.5288441512648838	-0.9856717432875501	-0.3028174340706399	1.5512598011683938	-0.5899403905133028	-0.35835001243436987	1.5690580424938385	-0.5788749617948774	-0.27034998227013646	1.9871674443456013	-0.5026728744942404	-0.22868459125769738	2.032972589944948	-0.4845361117034743	-0.2841013905600714	1.9844068548951541	-0.42142908645167826	-0.24119146113161768	1.959318504501941	-0.37285446335291034	-0.23694318059401118	2.020219452264717	-0.43287109671224033	-0.2507162346072976	1.9888464835092845	-0.5880784409455502	-0.26215934041184974	1.9321253183363687	-0.685749554466679	-0.26947525819925183	1.8842249718517703	-0.5816917661396277
13	0.43333333333333335	-0.2627691685126703	1.8273767899139912	-0.46821707745896485	-0.26830215769054166	1.8258252080864152	-0.4083878299038247	-0.27273573431671866	1.682978107778571	-0.4039165443280778	-0.26449481820189186	1.5360929911329597	-0.4004857786786808	-0.2161171760070947	1.5032530100824113	-0.3795097756716439	-0.23015104562640426	1.5076887865705804	-0.3588584688917091	-0.38724273874705195	1.5046722645363189	-0.7289085497256653	-0.24654529739961373	1.828761666333675	-0.5300758374695138	-0.23704491197835048	1.698817037459805	-0.49935547183409024	-0.3414443312303327	1.5775473593293865	-0.5831729906877106	-0.45020322616867614	1.5288441512648838	-0.9856717432875501	-0.3028174340706399	1.5512598011683938	-0.5899403905133028	-0.35835001243436987	1.5690580424938385	-0.5788749617948774	-0.27034998227013646	1.9871674443456013	-0.5026728744942404	-0.22868459125769738	2.032972589944948	-0.4845361117034743	-0.2841013905600714	1.9844068548951541	-0.42142908645167826	-0.24119146113161768	1.959318504501941	-0.37285446335291034	-0.23694318059401118	2.020219452264717	-0.43287109671224033	-0.2507162346072976	1.9888464835092845	-0.5880784409455502	-0.26215934041184974	1.9321253183363687	-0.685749554466679	-0.26947525819925183	1.8842249718517703	-0.5816917661396277
14	0.4666666666666667	-0.2627691685126703	1.8273767899139912	-0.46821707745896485	-0.26830215769054166	1.8258252080864152	-0.4083878299038247	-0.27273573431671866	1.682978107778571	-0.4039165443280778	-0.26449481820189186	1.5360929911329597	-0.4004857786786808	-0.2161171760070947	1.5032530100824113	-0.3795097756716439	-0.23015104562640426	1.5076887865705804	-0.3588584688917091	-0.3297334131457755	1.5115931399371627	-0.566369802512892	-0.24654529739961373	1.828761666333675	-0.5300758374695138	-0.23704491197835048	1.698817037459805	-0.49935547183409024	-0.3414443312303327	1.5775473593293865	-0.5831729906877106	-0.45020322616867614	1.5288441512648838	-0.9856717432875501	-0.3028174340706399	1.5512598011683938	-0.5899403905133028	-0.35835001243436987	1.5690580424938385	-0.5788749617948774	-0.27034998227013646	1.9871674443456013	-0.5026728744942404	-0.22868459125769738	2.032972589944948	-0.4845361117034743	-0.2841013905600714	1.9844068548951541	-0.42142908645167826	-0.24119146113161768	1.959318504501941	-0.37285446335291034	-0.23694318059401118	2.020219452264717	-0.43287109671224033	-0.2507162346072976	1.9888464835092845	-0.5880784409455502	-0.26215934041184974	1.9321253183363687	-0.685749554466679	-0.26947525819925183	1.8842249718517703	-0.5816917661396277
15	0.5	-0.2627691685126703	1.8273767899139912	-0.46821707745896485	-0.26830215769054166	1.8258252080864152	-0.4083878299038247	-0.27273573431671866	1.682978107778571	-0.4039165443280778	-0.26449481820189186	1.5360929911329597	-0.4004857786786808	-0.2161171760070947	1.5032530100824113	-0.3795097756716439	-0.23015104562640426	1.5076887865705804	-0.3588584688917091	-0.27222408754449906	1.5185140153380063	-0.40383105530011876	-0.24654529739961373	1.828761666333675	-0.5300758374695138	-0.23704491197835048	1.698817037459805	-0.49935547183409024	-0.3414443312303327	1.5775473593293865	-0.5831729906877106	-0.45020322616867614	1.5288441512648838	-0.9856717432875501	-0.3028174340706399	1.5512598011683938	-0.5899403905133028	-0.35835001243436987	1.5690580424938385	-0.5788749617948774	-0.27034998227013646	1.9871674443456013	-0.5026728744942404	-0.22868459125769738	2.032972589944948	-0.4845361117034743	-0.2841013905600714	1.9844068548951541	-0.42142908645167826	-0.24119146113161768	1.959318504501941	-0.37285446335291034	-0.23694318059401118	2.020219452264717	-0.43287109671224033	-0.2507162346072976	1.9888464835092845	-0.5880784409455502	-0.26215934041184974	1.9321253183363687	-0.685749554466679	-0.26947525819925183	1.8842249718517703	-0.5816917661396277
16	0.5333333333333333	-0.26061848284645955	1.8224193965677309	-0.46116940277537277	-0.2686626661791535	1.8197673253572073	-0.40237830158751675	-0.27081534035178084	1.6771312918693297	-0.40526005463778364	-0.26507466688907394	1.5362958171768946	-0.39995929086880083	-0.21413007280431273	1.500880692327523	-0.38129179213513686	-0.22902085748361753	1.5066071212510779	-0.3597166812474498	-0.2765386635807094	1.5219123231396203	-0.4041654158913394	-0.24344276471346218	1.8242855451863877	-0.5284529546179129	-0.23474138596047722	1.687687815668094	-0.5004560696124113	-0.3414443312303327	1.5775473593293865	-0.5831729906877106	-0.45020322616867614	1.5288441512648838	-0.9856717432875501	-0.3028174340706399	1.5512598011683938	-0.5899403905133028	-0.35835001243436987	1.5690580424938385	-0.5788749617948774	-0.2682126520943394	1.9880713847888658	-0.4962537142219424	-0.22883071007743283	2.032527842264174	-0.4764483992762312	-0.2836801833099063	1.9850377374531833	-0.4129667855009012	-0.23995195644760176	1.9586208758049544	-0.36913007970460626	-0.2311673931969537	2.019658296379046	-0.43151412346590634	-0.2516005935899177	1.9897228623708467	-0.5826243339819892	-0.26254189053749616	1.9357270138552174	-0.6779599838782858	-0.26947525819925183	1.8842249718517703	-0.5816917661396277
17	0.5666666666666667	-0.2597907510311303	1.8256130983394627	-0.45811691214265515	-0.2658725556387683	1.8216641676661245	-0.40130074858658105	-0.2699567585593071	1.6786928280860338	-0.40190562601907165	-0.26592252466200256	1.5375822966390453	-0.40376793421071017	-0.2164326940837405	1.5046651253216607	-0.37938433512790715	-0.23110662808670862	1.5067881931734843	-0.35758859714385155	-0.2746325758278006	1.5242507054872882	-0.4074188277680353	-0.2427329296813062	1.8275583687650425	-0.5254791177773558	-0.2354980960326506	1.6865200035575405	-0.49494188459005223	-0.3414443312303327	1.5775473593293865	-0.5831729906877106	-0.45020322616867614	1.5288441512648838	-0.9856717432875501	-0.3028174340706399	1.5512598011683938	-0.5899403905133028	-0.35835001243436987	1.5690580424938385	-0.5788749617948774	-0.26421744132023306	1.987804245400571	-0.4918929974381146	-0.22682544309106953	2.033130313824738	-0.4708123741111957	-0.27962611282670885	1.9849040071252464	-0.40852351675989473	-0.23764269050146802	1.961919601682999	-0.36298303311974883	-0.2296561465170749	2.0269652966959297	-0.4283305780609099	-0.24665006794537978	1.9906145962676205	-0.5754566753106485	-0.26666226243138885	1.9350958499981306	-0.661883143968205	-0.26947525819925183	1.8842249718517703	-0.5816917661396277
